<svg version="1.1" viewBox="0.0 0.0 480.0 480.0" fill="none" stroke="none" stroke-linecap="square" stroke-miterlimit="10" xmlns:xlink="http://www.w3.org/1999/xlink" xmlns="http://www.w3.org/2000/svg"><clipPath id="p.0"><path d="m0 0l480.0 0l0 480.0l-480.0 0l0 -480.0z" clip-rule="nonzero"/></clipPath><g clip-path="url(#p.0)"><path fill="#000000" fill-opacity="0.0" d="m0 0l480.0 0l0 480.0l-480.0 0z" fill-rule="evenodd"/><defs><linearGradient id="p.1" gradientUnits="userSpaceOnUse" gradientTransform="matrix(21.908941955246842 0.0 0.0 21.908941955246842 0.0 0.0)" spreadMethod="pad" x1="2.870974288913471E-10" y1="-7.930986506843203E-5" x2="-7.930986506843203E-5" y2="21.908862645238223"><stop offset="0.0" stop-color="#a2d447"/><stop offset="1.0" stop-color="#30c1e3"/></linearGradient></defs><path fill="url(#p.1)" d="m0 240.0l0 0c0 -132.54834 107.45166 -240.0 240.0 -240.0l0 0c63.651947 0 124.6969 25.285643 169.70563 70.29437c45.008728 45.008728 70.29437 106.053665 70.29437 169.70563l0 0c0 132.54834 -107.45166 240.0 -240.0 240.0l0 0c-132.54834 0 -240.0 -107.45166 -240.0 -240.0zm13.0176 0l0 0c0 125.35892 101.62348 226.98239 226.9824 226.98239c125.35892 0 226.98239 -101.623474 226.98239 -226.98239l0 0c0 -125.35892 -101.623474 -226.9824 -226.98239 -226.9824l0 0c-125.35892 0 -226.9824 101.62348 -226.9824 226.9824z" fill-rule="evenodd"/></g></svg>